<svg xmlns="http://www.w3.org/2000/svg" xmlns:xlink="http://www.w3.org/1999/xlink" width="500" zoomAndPan="magnify" viewBox="0 0 375 112.499997" height="150" preserveAspectRatio="xMidYMid meet" version="1.0"><defs><g/><clipPath id="2c70f45146"><path d="M 2 2 L 373 2 L 373 112.003906 L 2 112.003906 Z M 2 2 " clip-rule="nonzero"/></clipPath><clipPath id="89b42fb719"><path d="M 270 32 L 316 32 L 316 66.417969 L 270 66.417969 Z M 270 32 " clip-rule="nonzero"/></clipPath><clipPath id="dc3b190a1d"><path d="M 240.257812 43 L 287 43 L 287 62 L 240.257812 62 Z M 240.257812 43 " clip-rule="nonzero"/></clipPath><clipPath id="7c8698870f"><path d="M 268 0.410156 L 305 0.410156 L 305 33 L 268 33 Z M 268 0.410156 " clip-rule="nonzero"/></clipPath><clipPath id="6dbfc9b8f3"><path d="M 250 7 L 321.636719 7 L 321.636719 48 L 250 48 Z M 250 7 " clip-rule="nonzero"/></clipPath><clipPath id="6b26214989"><rect x="0" width="371" y="0" height="111"/></clipPath></defs><g clip-path="url(#2c70f45146)"><g transform="matrix(1, 0, 0, 1, 2, 2)"><g clip-path="url(#6b26214989)"><g clip-path="url(#89b42fb719)"><path fill="#4daf7c" d="M 281.695312 50.707031 C 272.488281 56.4375 270.871094 66.234375 270.871094 66.234375 C 277.003906 53.574219 286.285156 52.066406 297.972656 48.007812 C 314.089844 42.410156 315.875 32.964844 315.875 32.964844 C 309.457031 45.03125 291.523438 44.585938 281.695312 50.707031 " fill-opacity="1" fill-rule="nonzero"/></g><g clip-path="url(#dc3b190a1d)"><path fill="#4daf7c" d="M 256.632812 59.425781 C 248.015625 63.132812 240.261719 59.441406 240.261719 59.441406 C 252.277344 61.339844 257.9375 55.492188 266.589844 49.199219 C 278.53125 40.519531 286.121094 43.917969 286.121094 43.917969 C 274.382812 42.515625 265.835938 55.46875 256.632812 59.425781 " fill-opacity="1" fill-rule="nonzero"/></g><g clip-path="url(#7c8698870f)"><path fill="#4daf7c" d="M 273.003906 12.890625 C 273.003906 12.890625 283.335938 25.800781 304.226562 27.757812 C 290.355469 24.425781 278.964844 14.832031 268.554688 0.421875 C 268.554688 0.421875 262.511719 32.589844 290.960938 32.964844 C 271.0625 28.683594 273.003906 12.890625 273.003906 12.890625 " fill-opacity="1" fill-rule="nonzero"/></g><g clip-path="url(#6dbfc9b8f3)"><path fill="#4daf7c" d="M 321.792969 9.210938 C 321.792969 9.210938 313.175781 4.621094 306.886719 8.890625 C 300.710938 13.082031 302.722656 20.644531 298.695312 24.078125 C 298.695312 24.078125 301.144531 23.554688 302.722656 20.644531 C 304.957031 16.535156 304.632812 10.554688 314.472656 10.601562 C 314.472656 10.601562 311.167969 14.121094 310.910156 19.375 C 310.613281 25.398438 315.492188 31.050781 306.414062 33.871094 C 297.335938 36.691406 264.628906 31.148438 250.449219 47.425781 C 250.449219 47.425781 262.71875 37.828125 288.449219 39.085938 C 309.589844 40.117188 316.59375 35.382812 314.046875 26.34375 C 310.890625 15.125 317.597656 10.554688 321.792969 9.210938 " fill-opacity="1" fill-rule="nonzero"/></g><g fill="#4daf7c" fill-opacity="1"><g transform="translate(1.205285, 101.720476)"><g><path d="M 25.53125 -47.53125 C 31.59375 -47.53125 36.34375 -46.078125 39.78125 -43.171875 C 43.21875 -40.273438 44.9375 -36.296875 44.9375 -31.234375 C 44.9375 -26.160156 43.21875 -22.1875 39.78125 -19.3125 C 36.34375 -16.4375 31.59375 -15 25.53125 -15 L 12.765625 -15 L 12.765625 0 L 7.734375 0 L 7.734375 -47.53125 Z M 25.390625 -19.421875 C 30.097656 -19.421875 33.695312 -20.445312 36.1875 -22.5 C 38.675781 -24.5625 39.921875 -27.472656 39.921875 -31.234375 C 39.921875 -35.078125 38.675781 -38.023438 36.1875 -40.078125 C 33.695312 -42.140625 30.097656 -43.171875 25.390625 -43.171875 L 12.765625 -43.171875 L 12.765625 -19.421875 Z M 25.390625 -19.421875 "/></g></g></g><g fill="#4daf7c" fill-opacity="1"><g transform="translate(49.947368, 101.720476)"><g><path d="M 24.921875 -35.984375 C 29.398438 -35.984375 32.960938 -34.679688 35.609375 -32.078125 C 38.253906 -29.472656 39.578125 -25.679688 39.578125 -20.703125 L 39.578125 0 L 34.765625 0 L 34.765625 -20.234375 C 34.765625 -23.941406 33.832031 -26.769531 31.96875 -28.71875 C 30.113281 -30.664062 27.46875 -31.640625 24.03125 -31.640625 C 20.1875 -31.640625 17.144531 -30.492188 14.90625 -28.203125 C 12.664062 -25.921875 11.546875 -22.765625 11.546875 -18.734375 L 11.546875 0 L 6.71875 0 L 6.71875 -50.375 L 11.546875 -50.375 L 11.546875 -29.46875 C 12.859375 -31.550781 14.664062 -33.15625 16.96875 -34.28125 C 19.28125 -35.414062 21.929688 -35.984375 24.921875 -35.984375 Z M 24.921875 -35.984375 "/></g></g></g><g fill="#4daf7c" fill-opacity="1"><g transform="translate(95.906138, 101.720476)"><g><path d="M 19.21875 -35.984375 C 23.875 -35.984375 27.445312 -34.816406 29.9375 -32.484375 C 32.425781 -30.148438 33.671875 -26.695312 33.671875 -22.125 L 33.671875 0 L 29.0625 0 L 29.0625 -5.5625 C 27.96875 -3.707031 26.367188 -2.257812 24.265625 -1.21875 C 22.160156 -0.175781 19.660156 0.34375 16.765625 0.34375 C 12.785156 0.34375 9.617188 -0.601562 7.265625 -2.5 C 4.910156 -4.40625 3.734375 -6.921875 3.734375 -10.046875 C 3.734375 -13.078125 4.828125 -15.519531 7.015625 -17.375 C 9.210938 -19.226562 12.710938 -20.15625 17.515625 -20.15625 L 28.859375 -20.15625 L 28.859375 -22.34375 C 28.859375 -25.414062 27.992188 -27.753906 26.265625 -29.359375 C 24.546875 -30.960938 22.035156 -31.765625 18.734375 -31.765625 C 16.472656 -31.765625 14.300781 -31.390625 12.21875 -30.640625 C 10.132812 -29.898438 8.347656 -28.875 6.859375 -27.5625 L 4.6875 -31.15625 C 6.5 -32.695312 8.671875 -33.882812 11.203125 -34.71875 C 13.734375 -35.5625 16.40625 -35.984375 19.21875 -35.984375 Z M 17.515625 -3.46875 C 20.234375 -3.46875 22.5625 -4.085938 24.5 -5.328125 C 26.445312 -6.578125 27.898438 -8.378906 28.859375 -10.734375 L 28.859375 -16.5625 L 17.65625 -16.5625 C 11.539062 -16.5625 8.484375 -14.4375 8.484375 -10.1875 C 8.484375 -8.101562 9.273438 -6.460938 10.859375 -5.265625 C 12.441406 -4.066406 14.660156 -3.46875 17.515625 -3.46875 Z M 17.515625 -3.46875 "/></g></g></g><g fill="#4daf7c" fill-opacity="1"><g transform="translate(135.958824, 101.720476)"><g><path d="M 11.34375 -28.71875 C 12.46875 -31.113281 14.148438 -32.921875 16.390625 -34.140625 C 18.628906 -35.367188 21.40625 -35.984375 24.71875 -35.984375 L 24.71875 -31.296875 L 23.5625 -31.359375 C 19.800781 -31.359375 16.859375 -30.203125 14.734375 -27.890625 C 12.609375 -25.585938 11.546875 -22.351562 11.546875 -18.1875 L 11.546875 0 L 6.71875 0 L 6.71875 -35.703125 L 11.34375 -35.703125 Z M 11.34375 -28.71875 "/></g></g></g><g fill="#4daf7c" fill-opacity="1"><g transform="translate(162.637894, 101.720476)"><g><path d="M 51.25 -35.984375 C 55.738281 -35.984375 59.257812 -34.691406 61.8125 -32.109375 C 64.375 -29.535156 65.65625 -25.734375 65.65625 -20.703125 L 65.65625 0 L 60.828125 0 L 60.828125 -20.234375 C 60.828125 -23.941406 59.929688 -26.769531 58.140625 -28.71875 C 56.359375 -30.664062 53.835938 -31.640625 50.578125 -31.640625 C 46.867188 -31.640625 43.945312 -30.492188 41.8125 -28.203125 C 39.6875 -25.921875 38.625 -22.765625 38.625 -18.734375 L 38.625 0 L 33.8125 0 L 33.8125 -20.234375 C 33.8125 -23.941406 32.914062 -26.769531 31.125 -28.71875 C 29.34375 -30.664062 26.796875 -31.640625 23.484375 -31.640625 C 19.816406 -31.640625 16.910156 -30.492188 14.765625 -28.203125 C 12.617188 -25.921875 11.546875 -22.765625 11.546875 -18.734375 L 11.546875 0 L 6.71875 0 L 6.71875 -35.703125 L 11.34375 -35.703125 L 11.34375 -29.1875 C 12.601562 -31.363281 14.363281 -33.039062 16.625 -34.21875 C 18.894531 -35.394531 21.5 -35.984375 24.4375 -35.984375 C 27.425781 -35.984375 30.015625 -35.347656 32.203125 -34.078125 C 34.398438 -32.816406 36.046875 -30.941406 37.140625 -28.453125 C 38.453125 -30.796875 40.335938 -32.632812 42.796875 -33.96875 C 45.265625 -35.3125 48.082031 -35.984375 51.25 -35.984375 Z M 51.25 -35.984375 "/></g></g></g><g fill="#4daf7c" fill-opacity="1"><g transform="translate(234.664857, 101.720476)"><g><path d="M 19.21875 -35.984375 C 23.875 -35.984375 27.445312 -34.816406 29.9375 -32.484375 C 32.425781 -30.148438 33.671875 -26.695312 33.671875 -22.125 L 33.671875 0 L 29.0625 0 L 29.0625 -5.5625 C 27.96875 -3.707031 26.367188 -2.257812 24.265625 -1.21875 C 22.160156 -0.175781 19.660156 0.34375 16.765625 0.34375 C 12.785156 0.34375 9.617188 -0.601562 7.265625 -2.5 C 4.910156 -4.40625 3.734375 -6.921875 3.734375 -10.046875 C 3.734375 -13.078125 4.828125 -15.519531 7.015625 -17.375 C 9.210938 -19.226562 12.710938 -20.15625 17.515625 -20.15625 L 28.859375 -20.15625 L 28.859375 -22.34375 C 28.859375 -25.414062 27.992188 -27.753906 26.265625 -29.359375 C 24.546875 -30.960938 22.035156 -31.765625 18.734375 -31.765625 C 16.472656 -31.765625 14.300781 -31.390625 12.21875 -30.640625 C 10.132812 -29.898438 8.347656 -28.875 6.859375 -27.5625 L 4.6875 -31.15625 C 6.5 -32.695312 8.671875 -33.882812 11.203125 -34.71875 C 13.734375 -35.5625 16.40625 -35.984375 19.21875 -35.984375 Z M 17.515625 -3.46875 C 20.234375 -3.46875 22.5625 -4.085938 24.5 -5.328125 C 26.445312 -6.578125 27.898438 -8.378906 28.859375 -10.734375 L 28.859375 -16.5625 L 17.65625 -16.5625 C 11.539062 -16.5625 8.484375 -14.4375 8.484375 -10.1875 C 8.484375 -8.101562 9.273438 -6.460938 10.859375 -5.265625 C 12.441406 -4.066406 14.660156 -3.46875 17.515625 -3.46875 Z M 17.515625 -3.46875 "/></g></g></g><g fill="#4daf7c" fill-opacity="1"><g transform="translate(274.717542, 101.720476)"><g><path d="M 41.203125 -23.765625 L 46.03125 -23.765625 L 46.03125 -5.640625 C 43.8125 -3.691406 41.1875 -2.195312 38.15625 -1.15625 C 35.125 -0.113281 31.929688 0.40625 28.578125 0.40625 C 23.828125 0.40625 19.550781 -0.632812 15.75 -2.71875 C 11.945312 -4.800781 8.957031 -7.6875 6.78125 -11.375 C 4.613281 -15.0625 3.53125 -19.191406 3.53125 -23.765625 C 3.53125 -28.335938 4.613281 -32.46875 6.78125 -36.15625 C 8.957031 -39.84375 11.945312 -42.726562 15.75 -44.8125 C 19.550781 -46.894531 23.851562 -47.9375 28.65625 -47.9375 C 32.269531 -47.9375 35.59375 -47.359375 38.625 -46.203125 C 41.65625 -45.046875 44.210938 -43.335938 46.296875 -41.078125 L 43.171875 -37.890625 C 39.421875 -41.597656 34.648438 -43.453125 28.859375 -43.453125 C 25.003906 -43.453125 21.523438 -42.601562 18.421875 -40.90625 C 15.328125 -39.207031 12.894531 -36.851562 11.125 -33.84375 C 9.363281 -30.832031 8.484375 -27.472656 8.484375 -23.765625 C 8.484375 -20.046875 9.363281 -16.691406 11.125 -13.703125 C 12.894531 -10.722656 15.316406 -8.375 18.390625 -6.65625 C 21.472656 -4.9375 24.9375 -4.078125 28.78125 -4.078125 C 33.675781 -4.078125 37.816406 -5.296875 41.203125 -7.734375 Z M 41.203125 -23.765625 "/></g></g></g><g fill="#4daf7c" fill-opacity="1"><g transform="translate(327.193361, 101.720476)"><g><path d="M 21.3125 0.34375 C 17.875 0.34375 14.773438 -0.4375 12.015625 -2 C 9.253906 -3.5625 7.082031 -5.722656 5.5 -8.484375 C 3.914062 -11.242188 3.125 -14.367188 3.125 -17.859375 C 3.125 -21.335938 3.914062 -24.457031 5.5 -27.21875 C 7.082031 -29.976562 9.253906 -32.128906 12.015625 -33.671875 C 14.773438 -35.210938 17.875 -35.984375 21.3125 -35.984375 C 24.757812 -35.984375 27.863281 -35.210938 30.625 -33.671875 C 33.382812 -32.128906 35.539062 -29.976562 37.09375 -27.21875 C 38.65625 -24.457031 39.4375 -21.335938 39.4375 -17.859375 C 39.4375 -14.367188 38.65625 -11.242188 37.09375 -8.484375 C 35.539062 -5.722656 33.382812 -3.5625 30.625 -2 C 27.863281 -0.4375 24.757812 0.34375 21.3125 0.34375 Z M 21.3125 -3.9375 C 23.851562 -3.9375 26.128906 -4.515625 28.140625 -5.671875 C 30.148438 -6.828125 31.722656 -8.46875 32.859375 -10.59375 C 33.992188 -12.71875 34.5625 -15.140625 34.5625 -17.859375 C 34.5625 -20.566406 33.992188 -22.984375 32.859375 -25.109375 C 31.722656 -27.242188 30.148438 -28.882812 28.140625 -30.03125 C 26.128906 -31.1875 23.851562 -31.765625 21.3125 -31.765625 C 18.78125 -31.765625 16.503906 -31.1875 14.484375 -30.03125 C 12.472656 -28.882812 10.890625 -27.242188 9.734375 -25.109375 C 8.585938 -22.984375 8.015625 -20.566406 8.015625 -17.859375 C 8.015625 -15.140625 8.585938 -12.71875 9.734375 -10.59375 C 10.890625 -8.46875 12.472656 -6.828125 14.484375 -5.671875 C 16.503906 -4.515625 18.78125 -3.9375 21.3125 -3.9375 Z M 21.3125 -3.9375 "/></g></g></g></g></g></g></svg>